<svg width="512" height="512" viewBox="0 0 512 512" xmlns="http://www.w3.org/2000/svg">
  <defs>
    <linearGradient id="steam" x1="0%" y1="100%" x2="100%" y2="0%">
      <stop offset="0%" style="stop-color:#FFFFFF;stop-opacity:0" />
      <stop offset="100%" style="stop-color:#FFFFFF;stop-opacity:0.3" />
    </linearGradient>
  </defs>
  
  <!-- Cup body -->
  <path fill="#F1F2F2" d="M96 224v160c0 53.02 42.98 96 96 96h128c53.02 0 96-42.98 96-96V224H96z" />
  <path fill="#DCDDDE" d="M416 224v160c0 53.02-42.98 96-96 96H192c-53.02 0-96-42.98-96-96" />
  
  <!-- Cup rim -->
  <path fill="#E6E7E8" d="M80 192h352v32H80z" />
  
  <!-- Tea liquid -->
  <path fill="#8B4513" d="M112 256v128c0 35.35 28.65 64 64 64h160c35.35 0 64-28.65 64-64V256H112z" />
  
  <!-- Handle -->
  <path fill="#DCDDDE" d="M416 288c26.51 0 48-21.49 48-48s-21.49-48-48-48h-16v96h16z" />
  
  <!-- Steam -->
  <path fill="url(#steam)" d="M192 64c0 26.51-21.49 48-48 48s-48-21.49-48-48s21.49-48 48-48s48 21.49 48 48z" />
  <path fill="url(#steam)" d="M320 32c0 17.67-14.33 32-32 32s-32-14.33-32-32s14.33-32 32-32s32 14.33 32 32z" />
  <path fill="url(#steam)" d="M432 96c0 26.51-21.49 48-48 48s-48-21.49-48-48s21.49-48 48-48s48 21.49 48 48z" />
  
  <!-- Tea leaf -->
  <path fill="#4CAF50" d="M256 288c-17.67 0-32 14.33-32 32s14.33 32 32 32s32-14.33 32-32s-14.33-32-32-32z" />
  <path fill="#4CAF50" d="M256 288c0-32-32-64-32-64s-32 32-32 64s32 64 32 64s32-32 32-64z" />
</svg>
